<?xml version="1.0" standalone="no"?>
<!DOCTYPE svg PUBLIC "-//W3C//DTD SVG 20010904//EN"
 "http://www.w3.org/TR/2001/REC-SVG-20010904/DTD/svg10.dtd">
<svg version="1.0" xmlns="http://www.w3.org/2000/svg"
 width="512.000000pt" height="512.000000pt" viewBox="0 0 512.000000 512.000000"
 preserveAspectRatio="xMidYMid meet">
<metadata>
Created by potrace 1.14, written by Peter Selinger 2001-2017
</metadata>
<g transform="translate(0.000000,512.000000) scale(0.100000,-0.100000)"
fill="#000000" stroke="none">
<path d="M2295 4975 c-137 -80 -257 -149 -265 -155 -8 -5 -53 -31 -100 -58
-47 -27 -161 -93 -255 -147 -164 -95 -483 -279 -748 -432 -71 -41 -148 -85
-170 -98 -23 -13 -123 -70 -222 -128 l-180 -105 -3 -1280 -2 -1281 57 -34 c80
-48 317 -184 383 -220 30 -16 62 -36 71 -43 8 -8 18 -14 21 -14 3 0 99 -54
213 -121 115 -66 227 -131 249 -143 23 -13 128 -74 235 -136 107 -61 212 -122
235 -135 42 -23 120 -69 325 -188 62 -37 115 -67 117 -67 3 0 40 -22 84 -50
44 -27 80 -46 80 -43 0 3 8 -1 18 -10 9 -8 43 -29 74 -47 l58 -31 127 74 c71
41 144 84 163 94 19 11 224 129 455 263 231 134 477 276 548 317 70 40 187
108 260 150 72 42 159 92 192 110 33 19 152 87 265 153 l205 119 0 1281 0
1281 -171 99 c-95 54 -187 108 -205 118 -19 11 -207 119 -419 242 -482 279
-964 557 -1007 581 -18 11 -48 27 -65 38 -241 139 -336 191 -353 191 -11 -1
-132 -66 -270 -145z"/>
</g>
</svg>
